<?xml version="1.0" encoding="utf-8"?>
<!-- Generator: Adobe Illustrator 23.0.6, SVG Export Plug-In . SVG Version: 6.00 Build 0)  -->
<svg version="1.1" id="Layer_1" xmlns="http://www.w3.org/2000/svg" xmlns:xlink="http://www.w3.org/1999/xlink" x="0px" y="0px"
	 viewBox="0 0 2560 2426" style="enable-background:new 0 0 2560 2426;" xml:space="preserve">
<style type="text/css">
	.st0{fill:url(#SVGID_1_);}
	.st1{fill:#FFFCE6;}
	.st2{fill:#F69A80;}
</style>
<linearGradient id="SVGID_1_" gradientUnits="userSpaceOnUse" x1="463.0761" y1="1421" x2="2772.0762" y2="1421" gradientTransform="matrix(0 -1 1 0 -158.5 2718.5)">
	<stop  offset="0" style="stop-color:#FFFCE6"/>
	<stop  offset="0.2301" style="stop-color:#FBCEB6"/>
	<stop  offset="0.5059" style="stop-color:#F69A80"/>
</linearGradient>
<polygon class="st0" points="2550,117 2550,2426 -25,2426 -25,117 "/>
<g>
	<path class="st1" d="M2218.29,2207.71c-165.31,68.8-513.43,103.29-931.03,103.29c-539.43,0-948.28-67.27-948.28-164.27
		c0-37.54,78.34-64.03,156.57-82.71c156.57-37.54,417.6-57.93,774.34-84.42c539.43-39.07,791.71-65.75,791.71-137.59
		c0-82.9-339.26-140.74-791.71-140.74c-391.48,0-765.6,43.74-887.43,128.16l-339.26-18.68C191.04,1704.51,678.23,1642,1269.89,1642
		c548.06,0,1157.08,57.74,1157.08,203.05c0,36.02-34.74,70.32-182.8,103.29c-226.17,51.45-556.8,68.8-913.43,93.76
		c-348,24.96-626.4,45.36-626.4,107.86c0,46.88,200.17,101.57,600.28,101.57c252.4,0,495.83-21.92,617.77-71.85L2218.29,2207.71z"/>
</g>
<rect x="10" y="-294" class="st2" width="2560" height="1070"/>
<g>
	<path class="st1" d="M1994.14,1287.54c-126.45-70.7-379.35-101.57-641.28-101.57c-415.48,0-623.21,77.37-623.21,143.69
		c0,88.23,289.03,117.01,650.31,152.46c370.42,35.26,713.43,59.65,948.47,132.45c153.44,46.5,189.57,95.1,189.57,145.88
		c0,205.63-632.25,287.38-1201.27,287.38c-614.18,0-1119.98-88.43-1273.52-238.79l352.25-26.49
		c126.45,119.3,514.83,181.23,921.27,181.23c469.77,0,821.92-81.76,821.92-198.77c0-101.86-262.03-139.4-821.92-194.67
		c-370.32-37.54-641.28-66.32-803.86-119.3c-81.29-26.49-162.58-64.03-162.58-117.01c0-137.02,424.51-232.12,984.5-232.12
		c433.44,0,794.72,48.6,966.43,145.98L1994.14,1287.54z"/>
</g>
<path class="st1" d="M362.77,1248h1994.38c-131.01-440.78-539.18-744.88-998.64-744.25C900.11,504.39,493.49,808.23,362.77,1248z"/>
<path class="st1" d="M207.55,1741.46c-108.96,20.86-163.75,43.92-164.34,69.17c-0.5,21.37,37.8,44.31,114.92,68.82"/>
<rect x="10" y="995" class="st1" width="2560" height="307"/>
</svg>
